<svg id="Ebene_1" width="150px" height="150px"  data-name="Ebene 1" xmlns="http://www.w3.org/2000/svg" viewBox="0 0 1081.67 1081.67"><defs><style>.cls-1{fill:#1a1a1a;}.cls-2{fill:#2f98bb;}</style></defs><title>logoWithBackground</title><rect class="cls-1" width="1081.67" height="1081.67" rx="52.35" ry="52.35"/><path class="cls-2" d="M574.53,134,662.6,187l-46.29,26.34-39.52-19.95L246.73,385,245.6,595,508.67,756.08,456,784.68,193.67,625.48V354.14ZM683.73,350.9,628.37,379l256,157.91-.13,212.26L565,942l-36-21-45.42,25.66,82.79,53.23L938.65,778.82l1.54-269.51Z" transform="translate(-26.09 -26.09)"/><path class="cls-2" d="M323.56,433.48,707.19,215.63l233,129.46v100l-55.4-33.82V376.42L705.53,275,371.9,464.81l.83,143.58-49.17-27.18ZM193.67,788.26l231.1,129.2,383.05-216V552.37l-48.48-25.75L760,670.53,425,860.76,244.49,758.83V722l-50.82-30.95Z" transform="translate(-26.09 -26.09)"/></svg>